<?xml version="1.0" encoding="UTF-8"?><svg id="Layer_1" xmlns="http://www.w3.org/2000/svg" width="592.91" height="592.91" viewBox="0 0 592.91 592.91"><defs><style>.cls-1{fill:#fff;}.cls-2{fill:#e2e2e2;}.cls-3{fill:#234963;}.cls-4{fill:#4099b5;}</style></defs><path class="cls-2" d="M296.24,592.91C132.55,592.83-.08,460.01,0,296.25.08,132.57,132.92-.09,296.67,0c163.89.09,296.51,133.12,296.25,297.17-.26,163.39-133.11,295.83-296.67,295.74ZM298.53,564.91c148.2-.04,268.41-120.32,268.38-268.53-.03-148.18-120.35-268.43-268.53-268.38-148.2.05-268.41,120.32-268.38,268.53.03,148.19,120.32,268.41,268.53,268.38Z"/><path class="cls-4" d="M298.53,564.91c-148.21.04-268.5-120.18-268.53-268.38-.03-148.21,120.17-268.49,268.38-268.53,148.19-.05,268.5,120.2,268.53,268.38.03,148.21-120.18,268.49-268.38,268.53ZM104.83,325.76c-1.11,10.36,1.56,22.35,6.26,33.77,13.36,32.52,37.46,55.28,67.58,72.07,23.29,12.98,48.35,20.91,74.6,25.78,24.92,4.62,49.92,5.74,74.94,3.1,33.16-3.51,65.01-12.17,94.42-28.45,18.8-10.41,35.33-23.66,49.08-40.28,6.73-8.14,12.12-17.07,16.59-26.6,1.03-2.19,2.07-5.01,5.42-3.8,12.66,4.57,25.39,8.99,37.84,14.09,3.24,1.33,4.19,1,5.56-1.79,6.77-13.74,13.6-27.46,20.57-41.1,1.55-3.04,1.29-4.97-2.05-6.14-1.25-.44-2.45-1.07-3.73-1.34-16.07-3.42-32.13-6.94-48.26-10.08-4.96-.97-7.25-2.97-7.86-8.28-1.34-11.5-5.66-22.21-11.13-32.33-12.43-22.99-31.26-39.84-52.89-53.85-3.28-2.12-5.23-4.62-6.2-8.51-8.03-32.15-29.56-52.78-58.35-66.65-15.59-7.51-32.19-11.68-49.54-13.64-17.58-1.98-34.95-1.09-51.87,2.85-20.97,4.88-40.69,13.07-57.46,27.46-15.85,13.6-27.41,29.64-32.07,50.2-.78,3.46-2.39,5.9-5.47,7.85-13.39,8.49-25.8,18.28-36.31,30.19-18.44,20.9-30.74,44.43-29.68,75.47Z"/><path class="cls-3" d="M104.83,325.76c-1.06-31.04,11.24-54.57,29.68-75.47,10.5-11.9,22.92-21.7,36.31-30.19,3.08-1.95,4.69-4.39,5.47-7.85,4.66-20.57,16.21-36.6,32.07-50.2,16.77-14.39,36.49-22.58,57.46-27.46,16.92-3.94,34.29-4.83,51.87-2.85,17.35,1.96,33.95,6.13,49.54,13.64,28.79,13.87,50.31,34.5,58.35,66.65.97,3.89,2.93,6.38,6.2,8.51,21.62,14.01,40.45,30.86,52.89,53.85,5.47,10.12,9.79,20.83,11.13,32.33.62,5.31,2.91,7.32,7.86,8.28,16.13,3.14,32.18,6.66,48.26,10.08,1.28.27,2.48.91,3.73,1.34,3.34,1.17,3.6,3.09,2.05,6.14-6.96,13.64-13.8,27.36-20.57,41.1-1.37,2.79-2.32,3.12-5.56,1.79-12.45-5.1-25.18-9.52-37.84-14.09-3.35-1.21-4.39,1.61-5.42,3.8-4.47,9.53-9.85,18.46-16.59,26.6-13.76,16.62-30.28,29.87-49.08,40.28-29.4,16.28-61.26,24.94-94.42,28.45-25.02,2.65-50.02,1.53-74.94-3.1-26.25-4.87-51.32-12.81-74.6-25.78-30.12-16.79-54.22-39.55-67.58-72.07-4.69-11.41-7.36-23.41-6.26-33.77ZM303.47,449.98c43.09-.93,87.08-10.06,126.42-36,19.11-12.6,34.67-28.49,45.7-48.7,2.02-3.71,1.2-5.11-2.73-6.25-23.98-6.97-47.94-14.03-71.82-21.34-4.26-1.3-6.42-.59-8.95,3.2-16.32,24.4-37.12,43.09-66.51,50.25-23.28,5.67-45.93,4.05-67.79-6.1-4.07-1.89-8-3.96-12.34-5.34-50.74-16.1-91.4-44.95-116.8-92.94-.53-1-1.27-2.5-2.07-2.61-1.58-.22-1.83,1.62-2.34,2.76-12.34,28.04-10.91,55.59,4.1,82.1,16.38,28.93,42.36,47.1,71.83,60.45,31.71,14.37,65.43,20.07,103.3,20.51ZM299.61,143.03c-5.77.14-12.93.16-20.04,1.28-27.86,4.39-53,14.65-72.86,35.26-14.81,15.37-21.97,33.86-19.83,55.53,1.86,18.84,6.18,37.14,12.38,54.95,9.54,27.39,22.46,52.75,45.47,71.63,23.72,19.47,50.99,23.97,79.96,16.78,25.19-6.25,43.03-23.12,56.86-44.52,18.17-28.12,27.28-59.39,32.59-92.08,4.6-28.36-5.12-51.48-26.53-69.32-24.87-20.72-54.27-29.84-87.99-29.51ZM484.08,307.56c-.17-.94-.29-1.94-.52-2.91-7.46-30.52-26.82-52.21-51.77-69.74-2.88-2.03-4.09-.89-4.39,2.3-1.8,18.99-6.3,37.39-12.37,55.42-1.14,3.39-.51,4.72,3.08,5.35,9.83,1.73,19.6,3.8,29.41,5.69,10.79,2.07,21.58,4.11,32.39,6.07,1.75.32,4.26,1.41,4.18-2.19ZM411.41,309.03c-2.15-.3-3.05.99-3.66,2.7-.87,2.42,1.17,2.79,2.56,3.48,15.23,7.58,31.41,12.84,47.07,19.39,22.27,9.3,44.87,17.76,67.61,25.82,2.49.88,5,2.15,6.73-1.46,3.23-6.76,6.64-13.43,10.05-20.1,1.1-2.16.75-3.38-1.71-3.95-4.21-.98-8.37-2.22-12.6-3.06-26.76-5.3-53.54-10.51-80.31-15.76-11.91-2.34-23.82-4.7-35.73-7.06Z"/><path class="cls-1" d="M303.47,449.98c-37.87-.44-71.59-6.15-103.3-20.51-29.47-13.35-55.45-31.52-71.83-60.45-15.01-26.5-16.44-54.05-4.1-82.1.5-1.14.76-2.97,2.34-2.76.8.11,1.54,1.61,2.07,2.61,25.4,47.99,66.05,76.84,116.8,92.94,4.34,1.38,8.27,3.45,12.34,5.34,21.86,10.15,44.51,11.77,67.79,6.1,29.39-7.16,50.19-25.85,66.51-50.25,2.53-3.79,4.7-4.5,8.95-3.2,23.88,7.31,47.83,14.37,71.82,21.34,3.93,1.14,4.75,2.54,2.73,6.25-11.03,20.21-26.59,36.1-45.7,48.7-39.33,25.93-83.33,35.07-126.42,36Z"/><path class="cls-1" d="M299.61,143.03c33.72-.33,63.12,8.79,87.99,29.51,21.41,17.84,31.14,40.95,26.53,69.32-5.31,32.69-14.42,63.97-32.59,92.08-13.83,21.41-31.67,38.27-56.86,44.52-28.97,7.19-56.24,2.68-79.96-16.78-23.01-18.88-35.93-44.24-45.47-71.63-6.2-17.81-10.52-36.11-12.38-54.95-2.14-21.67,5.01-40.16,19.83-55.53,19.86-20.61,45.01-30.87,72.86-35.26,7.11-1.12,14.27-1.14,20.04-1.28ZM296.93,306.04c33.78-.31,63.84-10.14,83.82-28.91,25.25-23.71,34.26-60.24,8.5-92.77-13.69-17.28-31.98-27.68-52.89-33-39.06-9.94-76.15-5.58-109.38,18.72-38.74,28.33-39.86,79.08-2.94,109.65,22.35,18.5,48.48,25.58,72.89,26.32Z"/><path class="cls-1" d="M484.08,307.56c.07,3.6-2.43,2.51-4.18,2.19-10.81-1.96-21.6-4-32.39-6.07-9.81-1.88-19.58-3.96-29.41-5.69-3.59-.63-4.22-1.96-3.08-5.35,6.07-18.03,10.57-36.43,12.37-55.42.3-3.2,1.51-4.33,4.39-2.3,24.95,17.53,44.32,39.22,51.77,69.74.24.97.36,1.96.52,2.91Z"/><path class="cls-1" d="M411.41,309.03c11.91,2.35,23.82,4.72,35.73,7.06,26.77,5.25,53.55,10.46,80.31,15.76,4.24.84,8.39,2.08,12.6,3.06,2.46.57,2.81,1.8,1.71,3.95-3.41,6.67-6.82,13.34-10.05,20.1-1.72,3.6-4.24,2.34-6.73,1.46-22.75-8.06-45.34-16.51-67.61-25.82-15.66-6.54-31.84-11.8-47.07-19.39-1.39-.69-3.43-1.06-2.56-3.48.61-1.71,1.52-3.01,3.66-2.7Z"/><path class="cls-3" d="M296.93,306.04c-24.41-.74-50.54-7.82-72.89-26.32-36.92-30.57-35.8-81.32,2.94-109.65,33.23-24.3,70.32-28.66,109.38-18.72,20.91,5.32,39.2,15.72,52.89,33,25.77,32.52,16.75,69.05-8.5,92.77-19.98,18.77-50.05,28.6-83.82,28.91ZM301.2,158.82c-6.02-.08-12.03.19-17.94,1.2-23.56,4.06-44.96,12.53-60.67,31.58-10.61,12.87-15.12,27.6-11.91,44.28.23,1.2-.03,3.09,1.61,3.29,1.5.19,1.99-1.55,2.7-2.63,6.43-9.73,14.43-18.08,24.44-23.95,35.3-20.7,71.9-22.14,109.16-5.79,15.44,6.78,27.91,17.38,36.61,32.09.89,1.51,1.2,4.31,3.14,4.05,2.18-.29,1.56-3.28,2.42-4.98.22-.43.18-.98.27-1.47,4.18-22.53-4.45-40.43-21.23-54.42-19.7-16.43-43.14-23.2-68.61-23.27ZM229.26,246.66c.72,2.56,1.92,4.66,3.3,6.7,6.2,9.18,15,15.29,24.98,19.26,26.48,10.52,53.09,9.57,79.39-.87,8.25-3.28,15.94-7.73,21.02-15.45,2.98-4.53,4.62-9.55,1.74-14.59-3.55-6.22-7.83-11.95-13.79-16.27-14.53-10.53-30.87-13.81-48.32-11.61-10.31,1.3-20.28,4.13-28.01,11.87-5.38,5.38-6.02,11.9-1.06,16.79,5.8,5.71,12.68,8.26,21,5.82,3.69-1.08,5.07-2.8,3.8-6.47-1.27-3.67.48-5.7,3.8-6.83,6.68-2.29,13.2-1.64,19.32,1.64,9.14,4.91,10.65,13.8,3.97,21.67-2.86,3.37-6.36,5.81-10.38,7.61-27.41,12.27-63.47,1.62-77.31-16.94-.73-.98-1.36-2.33-3.47-2.32Z"/><path class="cls-1" d="M301.2,158.82c25.47.07,48.91,6.83,68.61,23.27,16.77,13.99,25.4,31.89,21.23,54.42-.09.49-.06,1.04-.27,1.47-.86,1.7-.24,4.69-2.42,4.98-1.94.26-2.25-2.54-3.14-4.05-8.7-14.71-21.17-25.31-36.61-32.09-37.26-16.36-73.86-14.91-109.16,5.79-10.01,5.87-18,14.22-24.44,23.95-.71,1.08-1.2,2.82-2.7,2.63-1.64-.21-1.38-2.09-1.61-3.29-3.21-16.68,1.3-31.41,11.91-44.28,15.7-19.05,37.1-27.53,60.67-31.58,5.9-1.02,11.92-1.28,17.94-1.2Z"/><path class="cls-1" d="M229.26,246.66c2.11,0,2.74,1.34,3.47,2.32,13.83,18.56,49.9,29.21,77.31,16.94,4.02-1.8,7.52-4.24,10.38-7.61,6.68-7.87,5.17-16.77-3.97-21.67-6.12-3.28-12.64-3.93-19.32-1.64-3.31,1.14-5.07,3.17-3.8,6.83,1.27,3.68-.11,5.4-3.8,6.47-8.32,2.43-15.2-.11-21-5.82-4.96-4.89-4.32-11.41,1.06-16.79,7.73-7.74,17.7-10.57,28.01-11.87,17.45-2.2,33.79,1.07,48.32,11.61,5.96,4.32,10.23,10.04,13.79,16.27,2.88,5.04,1.23,10.06-1.74,14.59-5.08,7.72-12.77,12.18-21.02,15.45-26.3,10.45-52.91,11.39-79.39.87-9.99-3.97-18.78-10.08-24.98-19.26-1.38-2.04-2.58-4.14-3.3-6.7Z"/></svg>