<?xml version="1.0" encoding="UTF-8"?><svg id="Layer_1" xmlns="http://www.w3.org/2000/svg" viewBox="0 0 592.91 592.91"><path d="M296.24,592.91C132.55,592.83-.08,460.01,0,296.25.08,132.57,132.92-.09,296.67,0c163.89.09,296.51,133.12,296.25,297.17-.26,163.39-133.11,295.83-296.67,295.74ZM298.53,564.91c148.2-.04,268.41-120.32,268.38-268.53-.03-148.18-120.35-268.43-268.53-268.38-148.2.05-268.41,120.32-268.38,268.53.03,148.19,120.32,268.41,268.53,268.38Z"/><path d="M104.83,325.76c-1.06-31.04,11.24-54.57,29.68-75.47,10.5-11.9,22.92-21.7,36.31-30.19,3.08-1.95,4.69-4.39,5.47-7.85,4.66-20.57,16.21-36.6,32.07-50.2,16.77-14.39,36.49-22.58,57.46-27.46,16.92-3.94,34.29-4.83,51.87-2.85,17.35,1.96,33.95,6.13,49.54,13.64,28.79,13.87,50.31,34.5,58.35,66.65.97,3.89,2.93,6.38,6.2,8.51,21.62,14.01,40.45,30.86,52.89,53.85,5.47,10.12,9.79,20.83,11.13,32.33.62,5.31,2.91,7.32,7.86,8.28,16.13,3.14,32.18,6.66,48.26,10.08,1.28.27,2.48.91,3.73,1.34,3.34,1.17,3.6,3.09,2.05,6.14-6.96,13.64-13.8,27.36-20.57,41.1-1.37,2.79-2.32,3.12-5.56,1.79-12.45-5.1-25.18-9.52-37.84-14.09-3.35-1.21-4.39,1.61-5.42,3.8-4.47,9.53-9.85,18.46-16.59,26.6-13.76,16.62-30.28,29.87-49.08,40.28-29.4,16.28-61.26,24.94-94.42,28.45-25.02,2.65-50.02,1.53-74.94-3.1-26.25-4.87-51.32-12.81-74.6-25.78-30.12-16.79-54.22-39.55-67.58-72.07-4.69-11.41-7.36-23.41-6.26-33.77ZM303.47,449.98c43.09-.93,87.08-10.06,126.42-36,19.11-12.6,34.67-28.49,45.7-48.7,2.02-3.71,1.2-5.11-2.73-6.25-23.98-6.97-47.94-14.03-71.82-21.34-4.26-1.3-6.42-.59-8.95,3.2-16.32,24.4-37.12,43.09-66.51,50.25-23.28,5.67-45.93,4.05-67.79-6.1-4.07-1.89-8-3.96-12.34-5.34-50.74-16.1-91.4-44.95-116.8-92.94-.53-1-1.27-2.5-2.07-2.61-1.58-.22-1.83,1.62-2.34,2.76-12.34,28.04-10.91,55.59,4.1,82.1,16.38,28.93,42.36,47.1,71.83,60.45,31.71,14.37,65.43,20.07,103.3,20.51ZM299.61,143.03c-5.77.14-12.93.16-20.04,1.28-27.86,4.39-53,14.65-72.86,35.26-14.81,15.37-21.97,33.86-19.83,55.53,1.86,18.84,6.18,37.14,12.38,54.95,9.54,27.39,22.46,52.75,45.47,71.63,23.72,19.47,50.99,23.97,79.96,16.78,25.19-6.25,43.03-23.12,56.86-44.52,18.17-28.12,27.28-59.39,32.59-92.08,4.6-28.36-5.12-51.48-26.53-69.32-24.87-20.72-54.27-29.84-87.99-29.51ZM484.08,307.56c-.17-.94-.29-1.94-.52-2.91-7.46-30.52-26.82-52.21-51.77-69.74-2.88-2.03-4.09-.89-4.39,2.3-1.8,18.99-6.3,37.39-12.37,55.42-1.14,3.39-.51,4.72,3.08,5.35,9.83,1.73,19.6,3.8,29.41,5.69,10.79,2.07,21.58,4.11,32.39,6.07,1.75.32,4.26,1.41,4.18-2.19ZM411.41,309.03c-2.15-.3-3.05.99-3.66,2.7-.87,2.42,1.17,2.79,2.56,3.48,15.23,7.58,31.41,12.84,47.07,19.39,22.27,9.3,44.87,17.76,67.61,25.82,2.49.88,5,2.15,6.73-1.46,3.23-6.76,6.64-13.43,10.05-20.1,1.1-2.16.75-3.38-1.71-3.95-4.21-.98-8.37-2.22-12.6-3.06-26.76-5.3-53.54-10.51-80.31-15.76-11.91-2.34-23.82-4.7-35.73-7.06Z"/><path d="M296.93,306.04c-24.41-.74-50.54-7.82-72.89-26.32-36.92-30.57-35.8-81.32,2.94-109.65,33.23-24.3,70.32-28.66,109.38-18.72,20.91,5.32,39.2,15.72,52.89,33,25.77,32.52,16.75,69.05-8.5,92.77-19.98,18.77-50.05,28.6-83.82,28.91ZM301.2,158.82c-6.02-.08-12.03.19-17.94,1.2-23.56,4.06-44.96,12.53-60.67,31.58-10.61,12.87-15.12,27.6-11.91,44.28.23,1.2-.03,3.09,1.61,3.29,1.5.19,1.99-1.55,2.7-2.63,6.43-9.73,14.43-18.08,24.44-23.95,35.3-20.7,71.9-22.14,109.16-5.79,15.44,6.78,27.91,17.38,36.61,32.09.89,1.51,1.2,4.31,3.14,4.05,2.18-.29,1.56-3.28,2.42-4.98.22-.43.18-.98.27-1.47,4.18-22.53-4.45-40.43-21.23-54.42-19.7-16.43-43.14-23.2-68.61-23.27ZM229.26,246.66c.72,2.56,1.92,4.66,3.3,6.7,6.2,9.18,15,15.29,24.98,19.26,26.48,10.52,53.09,9.57,79.39-.87,8.25-3.28,15.94-7.73,21.02-15.45,2.98-4.53,4.62-9.55,1.74-14.59-3.55-6.22-7.83-11.95-13.79-16.27-14.53-10.53-30.87-13.81-48.32-11.61-10.31,1.3-20.28,4.13-28.01,11.87-5.38,5.38-6.02,11.9-1.06,16.79,5.8,5.71,12.68,8.26,21,5.82,3.69-1.08,5.07-2.8,3.8-6.47-1.27-3.67.48-5.7,3.8-6.83,6.68-2.29,13.2-1.64,19.32,1.64,9.14,4.91,10.65,13.8,3.97,21.67-2.86,3.37-6.36,5.81-10.38,7.61-27.41,12.27-63.47,1.62-77.31-16.94-.73-.98-1.36-2.33-3.47-2.32Z"/></svg>