<svg width="1280" height="720" viewBox="0 0 1280 720" fill="none" xmlns="http://www.w3.org/2000/svg">
  <defs>
    <linearGradient id="bg" x1="0" y1="0" x2="1280" y2="720" gradientUnits="userSpaceOnUse">
      <stop stop-color="#1E293B" />
      <stop offset="1" stop-color="#0F172A" />
    </linearGradient>
  </defs>
  <rect width="1280" height="720" rx="32" fill="url(#bg)" />
  <rect x="120" y="120" width="1040" height="480" rx="24" fill="#111827" opacity="0.8" />
  <rect x="160" y="160" width="340" height="48" rx="12" fill="#1E293B" />
  <rect x="160" y="232" width="340" height="32" rx="8" fill="#0EA5E9" opacity="0.4" />
  <rect x="160" y="288" width="340" height="32" rx="8" fill="#0EA5E9" opacity="0.25" />
  <rect x="160" y="344" width="340" height="32" rx="8" fill="#0EA5E9" opacity="0.15" />
  <rect x="540" y="180" width="560" height="360" rx="20" fill="#0EA5E9" opacity="0.12" />
  <rect x="580" y="220" width="480" height="280" rx="16" fill="#1E293B" />
  <rect x="620" y="260" width="180" height="12" rx="6" fill="#38BDF8" />
  <rect x="620" y="290" width="320" height="12" rx="6" fill="#64748B" />
  <rect x="620" y="320" width="220" height="12" rx="6" fill="#475569" />
  <rect x="620" y="364" width="380" height="72" rx="12" fill="#0EA5E9" opacity="0.3" />
  <text x="160" y="220" fill="#F8FAFC" font-size="28" font-family="'Inter', 'Segoe UI', sans-serif" font-weight="600">Menu editor</text>
  <text x="160" y="396" fill="#CBD5F5" font-size="18" font-family="'Inter', 'Segoe UI', sans-serif">Use this slot for a real screenshot from the CMS menu editor.</text>
</svg>
