<svg width="1280" height="720" viewBox="0 0 1280 720" fill="none" xmlns="http://www.w3.org/2000/svg">
  <rect width="1280" height="720" rx="32" fill="#111827" />
  <rect x="160" y="160" width="960" height="400" rx="28" fill="#0F172A" />
  <rect x="208" y="206" width="200" height="200" rx="24" fill="#1E293B" />
  <rect x="440" y="206" width="560" height="36" rx="10" fill="#38BDF8" />
  <rect x="440" y="258" width="520" height="20" rx="10" fill="#1E293B" />
  <rect x="440" y="298" width="520" height="20" rx="10" fill="#1E293B" />
  <rect x="440" y="338" width="520" height="20" rx="10" fill="#1E293B" />
  <rect x="440" y="378" width="520" height="20" rx="10" fill="#1E293B" />
  <rect x="440" y="418" width="320" height="20" rx="10" fill="#1E293B" />
  <path d="M252 364l18 18 44-44" stroke="#38BDF8" stroke-width="12" stroke-linecap="round" stroke-linejoin="round" />
  <g transform="translate(208 430)">
    <circle cx="18" cy="18" r="12" fill="#38BDF8" />
    <circle cx="58" cy="18" r="12" fill="#38BDF8" />
    <circle cx="98" cy="18" r="12" fill="#38BDF8" />
    <circle cx="138" cy="18" r="12" fill="#38BDF8" />
    <circle cx="178" cy="18" r="12" fill="#38BDF8" opacity="0.4" />
  </g>
  <text x="160" y="604" fill="#CBD5F5" font-size="18" font-family="'Inter', 'Segoe UI', sans-serif">Drop in a testimonial or press mention screenshot here.</text>
</svg>
